<svg width="60" height="61" viewBox="0 0 60 61" fill="none" xmlns="http://www.w3.org/2000/svg">
<mask id="mask0_148_4161" style="mask-type:luminance" maskUnits="userSpaceOnUse" x="0" y="0" width="60" height="61">
<path d="M60 0.5H0V60.5H60V0.5Z" fill="white"/>
</mask>
<g mask="url(#mask0_148_4161)">
<path d="M20.168 0.722548C17.0391 1.51942 14.3203 4.15614 13.4766 7.23817L13.2773 7.9413L12.3516 8.01161C9.07034 8.26942 6.21097 10.1678 4.74612 13.0975C3.93753 14.703 3.70315 15.7928 3.78518 17.6678C3.84378 19.3084 4.06643 20.2459 4.69925 21.4881L5.02737 22.1444L4.16018 22.6952C2.20315 23.9373 0.65628 26.1639 0.175811 28.4842C-0.0468454 29.492 -0.0468454 31.5077 0.164092 32.5038C0.667999 34.8827 2.26175 37.1444 4.32425 38.41L5.02737 38.8436L4.69925 39.5116C4.06643 40.7538 3.84378 41.6795 3.78518 43.3319C3.70315 45.2069 3.93753 46.2967 4.74612 47.9022C5.64847 49.7069 7.043 51.1014 8.84768 52.0038C10.0547 52.6131 10.9688 52.8592 12.3281 52.9764L13.2773 53.0584L13.4766 53.7616C14.1445 56.1639 15.9961 58.4139 18.1992 59.5038C19.8516 60.3123 20.9062 60.535 22.8398 60.4764C24.1875 60.4295 24.5742 60.3709 25.3711 60.1014C26.3672 59.7616 27.3867 59.2225 28.2188 58.6014C28.7109 58.2381 28.7227 58.2264 29.0508 58.4256C29.3555 58.6014 29.8008 58.6248 32.6953 58.6248C37.1953 58.6248 36.9844 58.7772 37.4414 55.203C37.6055 53.9608 37.7344 52.8827 37.7344 52.8123C37.7344 52.742 38.332 52.4959 39.0703 52.2498C39.8086 52.0038 41.0859 51.4764 41.9063 51.078L43.4063 50.3514L45.2578 51.7928C47.3203 53.3866 47.7539 53.5975 48.5508 53.3631C48.9609 53.2342 49.4883 52.7655 51.8203 50.4452C55.582 46.6834 55.5234 46.9061 53.2617 43.9881C52.4531 42.9569 51.7969 42.0662 51.7969 42.0077C51.7969 41.9491 52.1133 41.2459 52.5 40.4491C52.875 39.6522 53.3906 38.41 53.625 37.7069C53.8594 36.992 54.0586 36.4061 54.0703 36.3944C54.082 36.3827 55.1719 36.2303 56.4844 36.0663C59.0508 35.7381 59.4141 35.6209 59.8008 34.9764C59.9766 34.66 60 34.2147 60 30.4998C60 25.0272 60.2344 25.4139 56.4844 24.9334C55.1602 24.7694 54.082 24.617 54.0703 24.6053C54.0586 24.5936 53.8594 23.9959 53.625 23.2928C53.3906 22.578 52.875 21.3475 52.5 20.5506C52.1133 19.7537 51.7969 19.0506 51.7969 18.992C51.7969 18.9334 52.4531 18.0428 53.2617 17.0116C55.5234 14.0936 55.582 14.3163 51.8203 10.5545C49.4883 8.23427 48.9609 7.76552 48.5508 7.63661C47.7539 7.40224 47.3203 7.61317 45.2578 9.20692L43.4063 10.6484L41.9063 9.92172C41.0859 9.52333 39.8086 8.99599 39.0703 8.74989C38.332 8.5038 37.7344 8.2577 37.7344 8.18739C37.7344 8.11708 37.6055 7.03895 37.4414 5.79677C36.9844 2.22255 37.1953 2.37489 32.6953 2.37489C29.8008 2.37489 29.3555 2.39833 29.0508 2.57411C28.7227 2.77333 28.7109 2.76161 28.2188 2.39833C27.3867 1.77724 26.3672 1.23817 25.3711 0.898329C24.5508 0.617079 24.2227 0.570206 22.7344 0.535047C21.375 0.511612 20.8594 0.546767 20.168 0.722548ZM24.1406 4.36708C25.8984 4.8827 27.293 6.26552 27.9258 8.11708C28.1719 8.8788 28.1836 8.93739 28.2188 18.8045L28.2539 28.742H25.9336C22.9688 28.7303 22.1016 28.6248 21 28.0975C19.8867 27.5702 18.8203 26.5272 18.3047 25.4608C17.9766 24.7811 17.8711 24.3592 17.625 22.5545C17.4492 21.3241 15.7383 20.7381 14.7422 21.5702C14.0508 22.1561 13.9102 23.0116 14.2266 24.6639C14.625 26.6561 15.3633 28.0623 16.8164 29.5272L17.7656 30.4998L16.8164 31.4608C15.3633 32.9373 14.625 34.3436 14.2266 36.3358C13.9102 37.9881 14.0508 38.8436 14.7422 39.4295C15.7383 40.2616 17.4492 39.6756 17.625 38.4452C17.8711 36.6405 17.9766 36.2186 18.3047 35.5389C18.8203 34.4725 19.8867 33.4295 21 32.9022C22.1016 32.3748 22.9688 32.2694 25.9336 32.2577H28.2422V41.5975C28.2422 46.742 28.1836 51.3241 28.125 51.7811C27.7734 54.5116 25.7695 56.5506 23.1445 56.8553C20.332 57.1717 17.6484 55.3319 16.9336 52.5897C16.4648 50.7616 17.0039 48.7108 18.3398 47.328C19.418 46.1913 20.5078 45.6873 22.1953 45.5116C23.3086 45.4061 23.7656 45.16 24.0703 44.5155C24.5039 43.5897 24.1875 42.5467 23.3203 42.078C22.9688 41.8787 22.7578 41.8553 21.8555 41.9139C20.0742 42.0194 18.457 42.5936 16.9453 43.6717C15.3164 44.8319 13.8867 46.9178 13.4531 48.7459L13.3008 49.367H12.7617C11.5898 49.367 10.2188 48.7577 9.15237 47.7733C8.61331 47.2811 8.30862 46.8709 7.93362 46.1092L7.44143 45.1131V43.6952C7.44143 42.3006 7.45315 42.2655 7.87503 41.3631C8.168 40.7537 8.55472 40.1912 9.01175 39.7225C9.39844 39.3241 9.77344 38.8436 9.83203 38.6678C10.125 37.8944 9.86719 36.91 9.26956 36.4764C9.09378 36.3592 8.60159 36.1717 8.168 36.078C6.4805 35.6795 5.00393 34.578 4.26565 33.1366C3.73831 32.1405 3.59768 31.367 3.65628 30.0662C3.71487 29.0936 3.77347 28.8709 4.16018 28.0623C4.96878 26.4452 6.36331 25.3436 8.168 24.9217C8.60159 24.828 9.09378 24.6405 9.26956 24.5233C9.86719 24.0897 10.125 23.1053 9.83203 22.3319C9.77344 22.1561 9.39844 21.6756 9.01175 21.2772C8.55472 20.8084 8.168 20.2459 7.87503 19.6366C7.45315 18.7342 7.44143 18.6991 7.44143 17.3045V15.8866L7.93362 14.8905C8.30862 14.1288 8.61331 13.7186 9.15237 13.2264C10.2188 12.242 11.5898 11.6328 12.7617 11.6328H13.3008L13.4531 12.2421C13.5352 12.582 13.7813 13.2498 14.0039 13.7303C15.0117 15.8397 16.4414 17.2577 18.5508 18.2538C19.6758 18.7811 20.5781 19.0155 21.8555 19.0858C22.7578 19.1444 22.9688 19.1209 23.3203 18.9217C24.1875 18.453 24.5039 17.41 24.0703 16.4842C23.7656 15.8397 23.3086 15.5936 22.207 15.4881C19.5117 15.2186 17.5781 13.6131 16.9336 11.1054C16.1133 7.90614 18.457 4.53114 21.7617 4.14442C22.6289 4.03895 23.1914 4.09755 24.1406 4.36708ZM34.0781 8.23427C34.4297 11.1171 34.5703 11.3398 36.2695 11.7381C38.1797 12.2069 40.3594 13.1209 42.2344 14.2577C42.7969 14.5975 43.0547 14.6795 43.5352 14.6795C44.2148 14.6795 44.2383 14.6678 46.4883 12.8983C47.2148 12.3358 47.8477 11.8671 47.8945 11.8671C48.0234 11.8671 50.5078 14.3631 50.5078 14.4803C50.5078 14.5389 49.9453 15.3006 49.2539 16.1795C48.5742 17.0584 47.9414 17.9022 47.8477 18.0662C47.5547 18.6287 47.6602 19.367 48.1172 20.1405C49.2539 22.0037 50.2031 24.2772 50.6836 26.2577C50.9063 27.1717 51.1641 27.5936 51.6797 27.8631C51.8555 27.9569 52.8984 28.1444 53.9766 28.2733C55.0664 28.4022 56.0742 28.5428 56.2266 28.578C56.4844 28.6248 56.4844 28.66 56.4844 30.4998C56.4844 32.3397 56.4844 32.3748 56.2266 32.4217C56.0742 32.4569 55.0664 32.5975 53.9766 32.7264C52.8984 32.8553 51.8555 33.0428 51.6797 33.1366C51.1641 33.4061 50.9063 33.828 50.6836 34.742C50.2031 36.7225 49.2539 38.9959 48.1172 40.8592C47.6602 41.6327 47.5547 42.3709 47.8477 42.9334C47.9414 43.0975 48.5742 43.9412 49.2539 44.8202C49.9453 45.6991 50.5078 46.4608 50.5078 46.5194C50.5078 46.6366 48.0234 49.1327 47.8945 49.1327C47.8477 49.1327 47.2148 48.6639 46.4883 48.1014C44.2383 46.3319 44.2148 46.3202 43.5352 46.3202C43.0547 46.3202 42.7969 46.4022 42.2344 46.742C40.3594 47.8788 38.1797 48.7928 36.2695 49.2616C34.5703 49.66 34.4297 49.8827 34.0781 52.7655L33.8086 54.9334L32.7773 54.9686L31.7578 55.0038V49.3319V43.66L32.7891 43.578C39.0234 43.0741 43.8984 38.5741 44.8359 32.4569C45.3164 29.3631 44.5898 25.953 42.9023 23.3983C40.5586 19.8475 37.043 17.7733 32.7891 17.4217L31.7578 17.3397V11.6678V5.99599L32.7773 6.03114L33.8086 6.0663L34.0781 8.23427ZM33.2813 21.1366C37.4766 21.8045 40.7461 25.1795 41.2734 29.3983C41.8125 33.6873 39.1172 37.9998 35.0039 39.4178C34.0313 39.7459 32.8359 39.992 32.1445 39.992H31.7578V30.4998V21.0077H32.1445C32.3438 21.0077 32.8594 21.0662 33.2813 21.1366Z" fill="#555555"/>
</g>
</svg>
