<svg width="60" height="61" viewBox="0 0 60 61" fill="none" xmlns="http://www.w3.org/2000/svg">
<g clip-path="url(#clip0_148_4147)">
<mask id="mask0_148_4147" style="mask-type:luminance" maskUnits="userSpaceOnUse" x="0" y="0" width="60" height="61">
<path d="M60 0.5H0V60.5H60V0.5Z" fill="white"/>
</mask>
<g mask="url(#mask0_148_4147)">
<path d="M28.9565 0.757831C28.6284 0.968768 28.3237 1.48439 27.058 4.08596C26.0971 6.05471 25.476 7.17971 25.3471 7.22658C25.2299 7.25002 23.7299 7.47268 21.9955 7.71877C18.6323 8.18752 18.351 8.28127 17.9291 8.96096C17.6713 9.38283 17.6127 10.3086 17.8237 10.7304C17.8823 10.8711 19.0307 12.0429 20.3549 13.3437L22.769 15.6875L22.2182 18.8633C21.9252 20.6093 21.6791 22.2148 21.6791 22.4375C21.6791 22.8945 22.0424 23.5039 22.5346 23.8672C22.769 24.0429 23.0268 24.1015 23.4721 24.1015C24.0229 24.0898 24.3627 23.9492 26.9994 22.5547C28.6049 21.6992 29.9526 21.0078 30.0112 21.0078C30.058 21.0078 31.4057 21.6992 33.0112 22.5547C35.6479 23.9492 35.976 24.0898 36.5268 24.1015C36.9721 24.1015 37.2299 24.0429 37.4643 23.8672C37.9565 23.5039 38.3198 22.8945 38.3198 22.4375C38.3198 22.2148 38.0737 20.6093 37.7807 18.8633L37.2299 15.6875L39.644 13.3437C40.9682 12.0429 42.1166 10.8711 42.1752 10.7304C42.3862 10.3086 42.3276 9.38283 42.0698 8.96096C41.6479 8.28127 41.3666 8.19924 38.0619 7.73049C36.3627 7.4844 34.8627 7.26174 34.7221 7.2383C34.5229 7.19143 34.1479 6.52346 32.9526 4.08596C31.6401 1.4258 31.3705 0.968768 31.019 0.746111C30.4682 0.406269 29.5073 0.406269 28.9565 0.757831ZM30.8784 8.18752C31.7338 10.0039 32.144 10.5078 32.8354 10.6367C33.3393 10.7187 36.433 11.164 36.5385 11.164C36.5854 11.164 35.9291 11.8437 35.0971 12.6875L33.5854 14.1992L33.5502 14.9375C33.5151 15.3828 33.6205 16.2968 33.7963 17.2578C33.9487 18.125 34.0659 18.8633 34.0424 18.8867C34.019 18.9101 33.2221 18.5117 32.2729 18.0195C29.9994 16.8125 30.0112 16.8125 27.726 18.0195C26.7768 18.5117 25.9799 18.9101 25.9565 18.8867C25.933 18.8633 26.0502 18.125 26.2026 17.2578C26.3549 16.3906 26.4838 15.3593 26.4838 14.9843V14.2929L24.9369 12.7226C24.0815 11.8672 23.4252 11.164 23.4604 11.164C23.5659 11.164 26.6713 10.7187 27.1635 10.6367C27.8549 10.5078 28.2651 10.0039 29.1205 8.1758C29.5659 7.2383 29.9643 6.47658 29.9994 6.47658C30.0463 6.47658 30.433 7.2383 30.8784 8.18752Z" fill="#E60029"/>
<path d="M8.47234 10.1211C8.16765 10.3203 7.85124 10.8242 6.98406 12.5586L5.87077 14.75L3.62077 15.0781C2.37859 15.2539 1.23015 15.4648 1.06609 15.5586C0.491866 15.8515 0.198897 16.2734 0.140303 16.8945C0.0465528 17.9023 0.128584 18.0195 1.99187 19.8359L3.73796 21.5351L3.33952 23.8203C2.89421 26.3398 2.89421 26.6914 3.40984 27.2773C4.25359 28.2265 4.86296 28.1562 7.47624 26.7734L9.49191 25.707L11.5075 26.7734C14.1208 28.1562 14.7302 28.2265 15.5739 27.2773C16.0896 26.6914 16.1013 26.3398 15.656 23.8203L15.2458 21.5351L16.9333 19.8945C17.8591 18.9922 18.6794 18.1367 18.738 17.9961C18.8083 17.8554 18.8669 17.457 18.8669 17.0937C18.8669 16.5781 18.8083 16.3906 18.5622 16.0859C18.3864 15.8867 18.1052 15.6523 17.9294 15.5586C17.7653 15.4765 16.6052 15.2539 15.363 15.0781L13.113 14.75L11.9997 12.5586C11.0974 10.7656 10.8161 10.3203 10.4997 10.1211C9.97237 9.79298 8.98796 9.79298 8.47234 10.1211ZM10.0192 16.7539C10.57 17.832 10.9567 18.1367 11.9177 18.2539C13.2536 18.4062 13.2302 18.3593 12.3747 19.2382C11.5075 20.1523 11.3903 20.4922 11.5896 21.6289C11.8005 22.8242 11.8239 22.8007 10.8278 22.2851C10.2536 21.9804 9.79659 21.8281 9.49191 21.8281C9.18718 21.8281 8.73015 21.9804 8.15593 22.2851C7.15984 22.8007 7.18327 22.8242 7.39421 21.6289C7.59343 20.4922 7.47624 20.1523 6.60906 19.2382C5.75359 18.3593 5.73015 18.4062 7.06609 18.2539C8.02702 18.1367 8.41374 17.832 8.96452 16.7539C9.22234 16.2617 9.45675 15.8515 9.49191 15.8515C9.52706 15.8515 9.76144 16.2617 10.0192 16.7539Z" fill="#E60029"/>
<path d="M49.488 10.1211C49.1833 10.3203 48.8669 10.8242 47.9997 12.5586L46.8864 14.75L44.6364 15.0781C43.3942 15.2539 42.2458 15.4648 42.0817 15.5586C41.5075 15.8515 41.2146 16.2734 41.156 16.8945C41.0622 17.9023 41.1442 18.0195 43.0075 19.8359L44.7536 21.5351L44.3552 23.8203C43.9099 26.3398 43.9099 26.6914 44.4255 27.2773C45.2692 28.2265 45.8786 28.1562 48.4919 26.7734L50.5075 25.707L52.5231 26.7734C55.1364 28.1562 55.7458 28.2265 56.5896 27.2773C57.1052 26.6914 57.1169 26.3398 56.6716 23.8203L56.2614 21.5351L57.9489 19.8945C58.8747 18.9922 59.695 18.1367 59.7536 17.9961C59.8239 17.8554 59.8825 17.457 59.8825 17.0937C59.8825 16.5781 59.8239 16.3906 59.5778 16.0859C59.4021 15.8867 59.1208 15.6523 58.945 15.5586C58.781 15.4765 57.6208 15.2539 56.3786 15.0781L54.1286 14.75L53.0153 12.5586C52.113 10.7656 51.8317 10.3203 51.5153 10.1211C50.988 9.79298 50.0036 9.79298 49.488 10.1211ZM51.0349 16.7539C51.5856 17.832 51.9724 18.1367 52.9333 18.2539C54.2692 18.4062 54.2458 18.3593 53.3903 19.2382C52.5231 20.1523 52.406 20.4922 52.6052 21.6289C52.8161 22.8242 52.8396 22.8007 51.8435 22.2851C51.2692 21.9804 50.8122 21.8281 50.5075 21.8281C50.2028 21.8281 49.7458 21.9804 49.1716 22.2851C48.1755 22.8007 48.1989 22.8242 48.4099 21.6289C48.6091 20.4922 48.4919 20.1523 47.6247 19.2382C46.7692 18.3593 46.7458 18.4062 48.0817 18.2539C49.0427 18.1367 49.4294 17.832 49.9802 16.7539C50.238 16.2617 50.4724 15.8515 50.5075 15.8515C50.5427 15.8515 50.7771 16.2617 51.0349 16.7539Z" fill="#E60029"/>
<path d="M9.31641 36.1133C8.0625 36.4766 7.14844 37.0273 6.21094 37.9883C4.81641 39.4062 4.21875 40.8828 4.21875 42.8984C4.21875 44.1992 4.42969 45.125 5.00391 46.2617C5.22656 46.707 5.36719 47.0938 5.30859 47.1055C5.26172 47.1289 4.91016 47.3164 4.54688 47.5273C2.47266 48.6992 0.925781 50.7383 0.351562 53.0469C0.152344 53.8438 0.117188 54.3711 0.117188 56.6797C0.117188 59.6562 0.140625 59.7852 0.890625 60.2773C1.21875 60.4883 2.01562 60.5 29.9883 60.5C58.418 60.5 58.7461 60.5 59.1211 60.2656C59.8711 59.7969 59.9062 59.6094 59.8594 56.2812C59.8125 53.4102 59.7891 53.2578 59.4961 52.4258C59.3203 51.957 58.9922 51.2188 58.7578 50.7852C58.1719 49.7305 56.5547 48.1367 55.4883 47.5508C55.043 47.3047 54.6562 47.0937 54.6328 47.0703C54.6094 47.0586 54.7734 46.6836 55.0078 46.2383C55.5703 45.125 55.7812 44.1992 55.7812 42.9219C55.7812 40.8711 55.125 39.3008 53.6836 37.8828C52.2773 36.5 50.7773 35.8906 48.75 35.8906C46.6992 35.8906 45.1289 36.5469 43.7109 37.9883C42.3164 39.4062 41.7188 40.8828 41.7188 42.8984C41.7188 44.1992 41.9297 45.125 42.4922 46.25C42.7148 46.6953 42.8789 47.0586 42.8672 47.082C42.8438 47.0938 42.5156 47.2695 42.1289 47.4922C41.2383 47.9727 41.0039 48.1602 40.1133 49.0391L39.3867 49.7539L38.4609 48.875C37.9453 48.3945 37.1719 47.7969 36.7266 47.5508C36.2812 47.3047 35.9062 47.0937 35.8828 47.0703C35.8594 47.0586 36.0234 46.6836 36.2578 46.2383C36.8203 45.125 37.0312 44.1992 37.0312 42.9219C37.0312 40.8711 36.375 39.3008 34.9336 37.8828C33.5273 36.5 32.0273 35.8906 30 35.8906C27.9492 35.8906 26.3789 36.5469 24.9609 37.9883C23.5664 39.4062 22.9688 40.8828 22.9688 42.8984C22.9688 44.1992 23.1797 45.125 23.7422 46.25C23.9648 46.6953 24.1289 47.0586 24.1172 47.082C24.0938 47.0938 23.7656 47.2695 23.3789 47.4922C22.4883 47.9727 22.2539 48.1602 21.3633 49.0391L20.6367 49.7539L19.7109 48.875C19.1953 48.3945 18.4219 47.7969 17.9766 47.5508C17.5312 47.3047 17.1562 47.0937 17.1328 47.0703C17.1094 47.0586 17.2734 46.6836 17.5078 46.2383C18.0703 45.125 18.2812 44.1992 18.2812 42.9219C18.2812 40.8711 17.625 39.3008 16.1836 37.8828C15.2227 36.9336 14.2969 36.3945 13.043 36.0781C12.082 35.832 10.2305 35.8437 9.31641 36.1133ZM12.457 39.7109C13.1602 39.9453 13.9336 40.6367 14.2969 41.3516C14.543 41.832 14.5898 42.0898 14.5898 42.9219C14.5898 44.1055 14.3906 44.5859 13.5938 45.3945C12.9023 46.0859 12.1172 46.3672 11.0391 46.2969C8.70703 46.168 7.27734 43.9414 8.05078 41.6797C8.29688 40.9414 9.24609 39.9805 9.96094 39.7227C10.6523 39.4883 11.7773 39.4766 12.457 39.7109ZM31.207 39.7109C31.9102 39.9453 32.6836 40.6367 33.0469 41.3516C33.293 41.832 33.3398 42.0898 33.3398 42.9219C33.3398 44.1055 33.1406 44.5859 32.3438 45.3945C31.6523 46.0859 30.8672 46.3672 29.7891 46.2969C27.457 46.168 26.0273 43.9414 26.8008 41.6797C27.0469 40.9414 27.9961 39.9805 28.7109 39.7227C29.4023 39.4883 30.5273 39.4766 31.207 39.7109ZM49.957 39.7109C50.6602 39.9453 51.4336 40.6367 51.7969 41.3516C52.043 41.832 52.0898 42.0898 52.0898 42.9219C52.0898 44.1055 51.8906 44.5859 51.0938 45.3945C50.4023 46.0859 49.6172 46.3672 48.5391 46.2969C46.207 46.168 44.7773 43.9414 45.5508 41.6797C45.7969 40.9414 46.7461 39.9805 47.4609 39.7227C48.1523 39.4883 49.2773 39.4766 49.957 39.7109ZM14.2383 50.0703C15.3984 50.2461 16.3945 50.75 17.2383 51.582C18.3867 52.7422 18.8555 54.0664 18.8672 56.2461V56.9844H11.25H3.63281V56.2461C3.64453 54.1484 4.10156 52.7773 5.16797 51.6523C5.90625 50.8672 7.125 50.2344 8.14453 50.082C9.14062 49.9414 13.2539 49.9297 14.2383 50.0703ZM32.9883 50.0703C34.1484 50.2461 35.1445 50.75 35.9883 51.582C37.1367 52.7422 37.6055 54.0664 37.6172 56.2461V56.9844H30H22.3828V56.2461C22.3945 54.1484 22.8516 52.7773 23.918 51.6523C24.6562 50.8672 25.875 50.2344 26.8945 50.082C27.8906 49.9414 32.0039 49.9297 32.9883 50.0703ZM51.7383 50.0703C52.8984 50.2461 53.8945 50.75 54.7383 51.582C55.8867 52.7422 56.3555 54.0664 56.3672 56.2461V56.9844H48.75H41.1328V56.2461C41.1445 54.1484 41.6016 52.7773 42.668 51.6523C43.4062 50.8672 44.625 50.2344 45.6445 50.082C46.6406 49.9414 50.7539 49.9297 51.7383 50.0703Z" fill="#555555"/>
</g>
</g>
<defs>
<clipPath id="clip0_148_4147">
<rect width="60" height="60" fill="white" transform="translate(0 0.5)"/>
</clipPath>
</defs>
</svg>
