<svg width="22" height="22" viewBox="0 0 22 22" fill="none" xmlns="http://www.w3.org/2000/svg">
<path d="M13.053 13.053C11.3802 14.779 11.2585 16.9308 11.1141 21.645C15.5089 21.645 18.5428 21.6298 20.1091 20.1091C21.6298 18.5428 21.645 15.3645 21.645 11.1141C16.9308 11.2661 14.779 11.3802 13.053 13.053ZM0.35498 11.1141C0.35498 15.3645 0.370188 18.5428 1.8909 20.1091C3.45724 21.6298 6.49107 21.645 10.8859 21.645C10.7339 16.9308 10.6198 14.779 8.94703 13.053C7.22102 11.3802 5.0692 11.2585 0.35498 11.1141ZM10.8859 0.35498C6.49868 0.35498 3.45724 0.370188 1.8909 1.8909C0.370188 3.45724 0.35498 6.63554 0.35498 10.8859C5.0692 10.7339 7.22102 10.6198 8.94703 8.94703C10.6198 7.22102 10.7415 5.0692 10.8859 0.35498ZM13.053 8.94703C11.3802 7.22102 11.2585 5.0692 11.1141 0.35498C15.5089 0.35498 18.5428 0.370188 20.1091 1.8909C21.6298 3.45724 21.645 6.63554 21.645 10.8859C16.9308 10.7339 14.779 10.6198 13.053 8.94703Z" fill="#E60029"/>
<path d="M21.645 11.1141V10.8859C16.9308 10.7339 14.779 10.6198 13.053 8.94703C11.3802 7.22102 11.2585 5.0692 11.1141 0.35498H10.8859C10.7339 5.0692 10.6198 7.22102 8.94703 8.94703C7.22102 10.6198 5.0692 10.7415 0.35498 10.8859V11.1141C5.0692 11.2661 7.22102 11.3802 8.94703 13.053C10.6198 14.779 10.7415 16.9308 10.8859 21.645H11.1141C11.2661 16.9308 11.3802 14.779 13.053 13.053C14.779 11.3802 16.9308 11.2585 21.645 11.1141Z" fill="white"/>
</svg>
