<svg width="153" height="55" viewBox="0 0 153 55" fill="none" xmlns="http://www.w3.org/2000/svg">
<path d="M63 4V15H61.5247L55.7308 7.37856V15H54V4H55.4749L61.2692 11.6529V4H63Z" fill="#0F272E"/>
<path d="M73 15H66V4H72.8314V5.80715H68.075V8.54146H72.3256V10.3486H68.075V13.1929H73V15Z" fill="#0F272E"/>
<path d="M81.6426 4H83.8615L80.2252 9.39L84 15H81.7811L78.9923 10.8671L76.2189 15H74L77.7753 9.39L74.1695 4H76.3884L79.0387 7.9757L81.6426 4Z" fill="#0F272E"/>
<path d="M87.5409 5.80715H84V4H93V5.80715H89.4596V15H87.5409V5.80715Z" fill="#0F272E"/>
<path d="M61.1659 27.8407H58.4707V26.0886H63V30.5069C62.5213 30.964 61.8837 31.3297 61.0862 31.6039C60.2887 31.868 59.5335 32 58.8215 32C57.0137 32 55.5888 31.5023 54.5469 30.5069C53.5156 29.5217 53 28.1861 53 26.5C53 24.9358 53.5103 23.6306 54.5313 22.5845C55.5519 21.5282 56.8966 21 58.5659 21C59.9908 21 61.1868 21.3606 62.1544 22.0817L61.3253 23.5748C61.0488 23.3209 60.6819 23.1228 60.2246 22.9806C59.7678 22.8282 59.2944 22.7521 58.8055 22.7521C57.6887 22.7521 56.7906 23.0873 56.1098 23.7577C55.4187 24.4179 55.0732 25.332 55.0732 26.5C55.0732 27.6274 55.4187 28.5365 56.1098 29.2272C56.7906 29.9077 57.7048 30.2479 58.8531 30.2479C59.2575 30.2479 59.6934 30.1768 60.1609 30.0346C60.6289 29.8823 60.9637 29.7096 61.1659 29.5166V27.8407Z" fill="#0F272E"/>
<path d="M72 32H65V21H71.8314V22.8072H67.0745V25.5415H71.3251V27.3486H67.0745V30.1929H72V32Z" fill="#0F272E"/>
<path d="M83 21V32H81.5251L75.7308 24.3786V32H74V21H75.4749L81.2692 28.6529V21H83Z" fill="#0F272E"/>
<path d="M94 32H87V21H93.8314V22.8072H89.0745V25.5415H93.3251V27.3486H89.0745V30.1929H94V32Z" fill="#0F272E"/>
<path d="M98.0092 27.8946V32H96V21.0313C96.5664 21.0313 97.1816 21.0261 97.846 21.0157C98.5099 21.0052 99.0544 21 99.479 21C102.245 21 103.628 22.1282 103.628 24.3846C103.628 25.2203 103.405 25.9098 102.958 26.453C102.512 26.9753 102 27.3305 101.423 27.5185L105 32H102.566L99.4138 27.8946H98.0092ZM99.3814 22.802C99.3267 22.802 99.2396 22.8072 99.1196 22.8177C99.0002 22.8177 98.8314 22.8229 98.6135 22.8333C98.396 22.8333 98.1944 22.8333 98.0092 22.8333V26.0926H99.3157C99.9582 26.0926 100.481 25.9411 100.884 25.6382C101.298 25.3352 101.505 24.9226 101.505 24.4003C101.505 23.3348 100.797 22.802 99.3814 22.802Z" fill="#0F272E"/>
<path d="M106.949 32H105L109.651 21H111.348L116 32H113.941L112.794 29.1952H108.096L106.949 32ZM112.055 27.3931L110.453 23.4914L108.834 27.3931H112.055Z" fill="#0F272E"/>
<path d="M118.541 22.8072H115V21H124V22.8072H120.459V32H118.541V22.8072Z" fill="#0F272E"/>
<path d="M128 32H126V21H128V32Z" fill="#0F272E"/>
<path d="M130 26.5C130 24.946 130.513 23.6408 131.539 22.5845C132.585 21.5282 133.903 21 135.492 21C137.082 21 138.394 21.5078 139.431 22.5236C140.477 23.5494 141 24.8749 141 26.5C141 28.0946 140.477 29.41 139.431 30.446C138.384 31.482 137.072 32 135.492 32C133.903 32 132.59 31.4922 131.554 30.4765C130.518 29.4607 130 28.1353 130 26.5ZM131.961 26.5C131.961 27.5766 132.298 28.4705 132.973 29.1815C133.647 29.8924 134.486 30.2479 135.492 30.2479C136.579 30.2479 137.439 29.8924 138.073 29.1815C138.716 28.4705 139.038 27.5766 139.038 26.5C139.038 25.4132 138.696 24.5143 138.012 23.8033C137.328 23.1025 136.488 22.7521 135.492 22.7521C134.476 22.7521 133.631 23.1025 132.957 23.8033C132.293 24.5042 131.961 25.4031 131.961 26.5Z" fill="#0F272E"/>
<path d="M153 21V32H151.525L145.731 24.3786V32H144V21H145.475L151.269 28.6529V21H153Z" fill="#0F272E"/>
<path d="M58.5971 45.1125C58.5971 44.7561 58.4983 44.4454 58.3007 44.1806C58.1031 43.9158 57.8485 43.7019 57.5368 43.5389C57.2252 43.3657 56.877 43.2028 56.4922 43.05C56.1183 42.8972 55.7387 42.7343 55.3544 42.5611C54.98 42.3778 54.6371 42.1741 54.3254 41.95C54.0133 41.7259 53.7587 41.4306 53.5615 41.0639C53.3639 40.6972 53.2651 40.2745 53.2651 39.7958C53.2651 39.0116 53.5615 38.3495 54.1539 37.8097C54.7568 37.2699 55.5568 37 56.5549 37C57.1677 37 57.7449 37.1018 58.285 37.3055C58.8257 37.5093 59.2518 37.7792 59.5634 38.1153L58.8466 39.093C58.2542 38.5125 57.5159 38.2222 56.6328 38.2222C56.0299 38.2222 55.5515 38.3648 55.1981 38.65C54.8451 38.9352 54.6684 39.3171 54.6684 39.7958C54.6684 40.1523 54.7667 40.463 54.9644 40.7278C55.162 40.9926 55.4166 41.2065 55.7283 41.3695C56.0404 41.5324 56.3834 41.6903 56.7572 41.8431C57.142 41.9856 57.5211 42.1436 57.8955 42.3167C58.2798 42.4898 58.628 42.6884 58.9401 42.9125C59.2518 43.1264 59.5064 43.4218 59.704 43.7986C59.9012 44.1755 60 44.6084 60 45.0972C60 45.9732 59.657 46.676 58.971 47.2056C58.3059 47.735 57.4641 48 56.4456 48C55.7283 48 55.0423 47.8575 54.3876 47.5725C53.733 47.2871 53.2703 46.895 53 46.3959L53.7639 45.5098C54.0656 45.8968 54.4656 46.2075 54.9644 46.4417C55.4632 46.6658 55.9625 46.7778 56.4613 46.7778C57.0746 46.7778 57.5838 46.6301 57.9891 46.3348C58.3943 46.0292 58.5971 45.6218 58.5971 45.1125Z" fill="#E60029"/>
<path d="M70.4691 45.8306L71 46.8084C70.6358 47.1748 70.1406 47.4654 69.5159 47.6792C68.8908 47.8929 68.2347 48 67.5472 48C65.9118 48 64.5729 47.5008 63.5317 46.5028C62.5104 45.4843 62 44.15 62 42.5C62 40.9111 62.4899 39.6023 63.4688 38.5736C64.4482 37.5245 65.7761 37 67.4534 37C68.8389 37 69.9483 37.3463 70.7815 38.0389L70.172 39.0167C69.4431 38.487 68.5418 38.2222 67.4691 38.2222C66.2817 38.2222 65.3076 38.6195 64.5472 39.4139C63.7869 40.1982 63.4064 41.2269 63.4064 42.5C63.4064 43.7732 63.7969 44.807 64.5782 45.6014C65.3804 46.3857 66.4117 46.7778 67.672 46.7778C68.7346 46.7778 69.6669 46.4621 70.4691 45.8306Z" fill="#E60029"/>
<path d="M82 48H80.6214V43.0186H74.3786V48H73V37H74.3786V41.7615H80.6214V37H82V48Z" fill="#E60029"/>
<path d="M84 42.5C84 40.9519 84.5187 39.6482 85.5562 38.5889C86.5932 37.5296 87.9081 37 89.5 37C91.0816 37 92.3913 37.5143 93.4288 38.543C94.4761 39.5718 95 40.8908 95 42.5C95 44.0685 94.4761 45.3825 93.4288 46.4417C92.381 47.4808 91.0712 48 89.5 48C87.9288 48 86.6139 47.4859 85.5562 46.457C84.5187 45.4283 84 44.1093 84 42.5ZM85.3867 42.5C85.3867 43.7019 85.782 44.7204 86.573 45.5556C87.3636 46.3704 88.3395 46.7778 89.5 46.7778C90.7121 46.7778 91.6979 46.3704 92.458 45.5556C93.2283 44.7408 93.6133 43.7223 93.6133 42.5C93.6133 41.2778 93.218 40.2593 92.427 39.4444C91.6364 38.6296 90.6605 38.2222 89.5 38.2222C88.3189 38.2222 87.3382 38.6245 86.5575 39.4292C85.7768 40.2338 85.3867 41.2574 85.3867 42.5Z" fill="#E60029"/>
<path d="M97 42.5C97 40.9519 97.5183 39.6482 98.5558 38.5889C99.5933 37.5296 100.908 37 102.5 37C104.082 37 105.391 37.5143 106.429 38.543C107.477 39.5718 108 40.8908 108 42.5C108 44.0685 107.477 45.3825 106.429 46.4417C105.381 47.4808 104.072 48 102.5 48C100.928 48 99.614 47.4859 98.5558 46.457C97.5183 45.4283 97 44.1093 97 42.5ZM98.3863 42.5C98.3863 43.7019 98.7821 44.7204 99.5727 45.5556C100.364 46.3704 101.339 46.7778 102.5 46.7778C103.712 46.7778 104.698 46.3704 105.458 45.5556C106.228 44.7408 106.614 43.7223 106.614 42.5C106.614 41.2778 106.218 40.2593 105.427 39.4444C104.636 38.6296 103.661 38.2222 102.5 38.2222C101.319 38.2222 100.338 38.6245 99.5572 39.4292C98.7769 40.2338 98.3863 41.2574 98.3863 42.5Z" fill="#E60029"/>
<path d="M117 48H110V37H111.384V46.7429H117V48Z" fill="#E60029"/>
<path fill-rule="evenodd" clip-rule="evenodd" d="M17.9505 3.62002C5.05546 3.62002 0.610562 1.20668 0 0V8.68807C0.610562 9.89475 5.05546 12.3081 17.9505 12.3081C30.8456 12.3081 36.0231 17.1348 37 19.5481V10.8601C36.0231 8.44672 30.8456 3.62002 17.9505 3.62002ZM17.9505 21.2416C5.05546 21.2416 0.610562 18.7873 0 17.5602V26.3955C0.610562 27.6226 5.05546 30.0769 17.9505 30.0769C30.8456 30.0769 36.0231 34.9854 37 37.4396V28.6043C36.0231 26.1501 30.8456 21.2416 17.9505 21.2416ZM0 35.4517C0.610562 36.6583 5.05546 39.0717 17.9505 39.0717C30.8456 39.0717 36.0231 43.8984 37 46.3117V55C36.0231 52.5865 30.8456 47.7598 17.9505 47.7598C5.05546 47.7598 0.610562 45.3464 0 44.1397V35.4517Z" fill="#E60029"/>
<g opacity="0.7">
<path d="M48 4C40.8938 5.42604 37.7392 8.61194 37 10.4223V19C37.7392 17.1896 40.8938 14.0037 48 12.5776V4Z" fill="#E60029"/>
<path d="M48 22C40.8938 23.5211 37.7393 26.9194 37 28.8505V38C37.7393 36.0689 40.8938 32.6706 48 31.1495V22Z" fill="#E60029"/>
<path d="M48 40C40.8938 41.426 37.7393 44.6119 37 46.4223V55C37.7393 53.1898 40.8938 50.0037 48 48.5777V40Z" fill="#E60029"/>
</g>
</svg>
