<svg width="30" height="31" viewBox="0 0 30 31" fill="none" xmlns="http://www.w3.org/2000/svg">
<path fill-rule="evenodd" clip-rule="evenodd" d="M9.0861 5.09326C7.83133 5.09326 6.62795 5.59172 5.74069 6.47897C4.85344 7.36623 4.35498 8.56961 4.35498 9.82438V21.6522C4.35498 22.907 4.85344 24.1103 5.74069 24.9976C6.62795 25.8848 7.83133 26.3833 9.0861 26.3833H20.9139C22.1687 26.3833 23.372 25.8848 24.2593 24.9976C25.1466 24.1103 25.645 22.907 25.645 21.6522V9.82438C25.645 8.56961 25.1466 7.36623 24.2593 6.47897C23.372 5.59172 22.1687 5.09326 20.9139 5.09326H9.0861ZM21.3066 13.4378C21.4807 13.1768 21.544 12.8573 21.4825 12.5497C21.4211 12.242 21.2399 11.9714 20.979 11.7973C20.718 11.6232 20.3985 11.5599 20.0908 11.6213C19.7832 11.6828 19.5125 11.8639 19.3384 12.1249C18.9197 12.6808 18.4809 13.213 17.9676 13.6862C17.3727 14.235 16.7706 14.6466 16.184 14.8902L16.1745 12.6429C16.1406 12.3552 16.0023 12.09 15.7858 11.8975C15.5693 11.7049 15.2897 11.5986 15 11.5986C14.3589 11.6352 13.8172 12.1083 13.8172 12.7813V17.9536C11.5132 17.3149 10.2689 15.0795 10.2689 12.7813C10.2689 12.4676 10.1443 12.1668 9.92245 11.945C9.70064 11.7232 9.39979 11.5986 9.0861 11.5986C8.77241 11.5986 8.47156 11.7232 8.24975 11.945C8.02793 12.1668 7.90332 12.4676 7.90332 12.7813C7.90332 17.0772 10.8721 20.4694 15 20.4694C15.3137 20.4694 15.6145 20.3448 15.8364 20.123C16.0582 19.9012 16.1828 19.6003 16.1828 19.2866V17.4379C17.7582 17.5633 19.2864 18.6763 19.8565 19.8153C19.9229 19.9591 20.0176 20.0881 20.1348 20.1946C20.252 20.3012 20.3894 20.3831 20.5389 20.4355C20.6884 20.4879 20.8469 20.5097 21.005 20.4997C21.1631 20.4897 21.3175 20.4481 21.4592 20.3772C21.6009 20.3064 21.7269 20.2078 21.8297 20.0873C21.9326 19.9669 22.0102 19.827 22.058 19.676C22.1057 19.5249 22.1227 19.3658 22.1078 19.2081C22.0929 19.0504 22.0465 18.8973 21.9713 18.7579C21.4059 17.626 20.3509 16.5674 19.0522 15.8767C19.2273 15.7335 19.4011 15.5822 19.5726 15.4248C20.2243 14.8306 20.806 14.1639 21.3066 13.4378Z" fill="white"/>
</svg>
