<svg width="22" height="22" viewBox="0 0 22 22" fill="none" xmlns="http://www.w3.org/2000/svg">
<path d="M11.0005 0.0932617C5.12444 0.0932617 0.355469 4.86223 0.355469 10.7383C0.355469 16.6143 5.12444 21.3833 11.0005 21.3833C16.8765 21.3833 21.6455 16.6143 21.6455 10.7383C21.6455 4.86223 16.8765 0.0932617 11.0005 0.0932617ZM15.9398 7.33188C15.7801 9.01379 15.0882 13.1015 14.7369 14.9856C14.5879 15.784 14.2898 16.0501 14.013 16.0821C13.3956 16.1353 12.9272 15.6776 12.3311 15.2837C11.3944 14.6663 10.8621 14.2831 9.95728 13.687C8.90342 12.995 9.5847 12.6118 10.1915 11.9944C10.3511 11.8347 13.0763 9.35443 13.1295 9.13088C13.1369 9.09702 13.1359 9.06187 13.1266 9.02848C13.1174 8.99509 13.1001 8.96447 13.0763 8.93927C13.0124 8.88605 12.9272 8.90734 12.8527 8.91798C12.7569 8.93927 11.2666 9.92926 8.36052 11.8879C7.93472 12.1754 7.5515 12.3244 7.21086 12.3137C6.82764 12.3031 6.10378 12.1008 5.56088 11.9199C4.89025 11.707 4.36864 11.5899 4.41122 11.2173C4.43251 11.0257 4.69864 10.8341 5.19895 10.6318C8.3073 9.27991 10.3724 8.38573 11.405 7.95993C14.3643 6.72511 14.9711 6.51221 15.3756 6.51221C15.4608 6.51221 15.663 6.5335 15.7907 6.63995C15.8972 6.72511 15.9291 6.8422 15.9398 6.92736C15.9291 6.99123 15.9504 7.18285 15.9398 7.33188Z" fill="white"/>
</svg>
