<svg width="22" height="22" viewBox="0 0 22 22" fill="none" xmlns="http://www.w3.org/2000/svg">
<path d="M13.053 12.7912C11.3802 14.5173 11.2585 16.6691 11.1141 21.3833C15.5089 21.3833 18.5428 21.3681 20.1091 19.8474C21.6298 18.281 21.645 15.1027 21.645 10.8523C16.9308 11.0044 14.779 11.1185 13.053 12.7912ZM0.35498 10.8523C0.35498 15.1027 0.370188 18.281 1.8909 19.8474C3.45724 21.3681 6.49107 21.3833 10.8859 21.3833C10.7339 16.6691 10.6198 14.5173 8.94703 12.7912C7.22102 11.1185 5.0692 10.9968 0.35498 10.8523ZM10.8859 0.0932617C6.49868 0.0932617 3.45724 0.108469 1.8909 1.62919C0.370188 3.19552 0.35498 6.37382 0.35498 10.6242C5.0692 10.4722 7.22102 10.3581 8.94703 8.68531C10.6198 6.9593 10.7415 4.80748 10.8859 0.0932617ZM13.053 8.68531C11.3802 6.9593 11.2585 4.80748 11.1141 0.0932617C15.5089 0.0932617 18.5428 0.108469 20.1091 1.62919C21.6298 3.19552 21.645 6.37382 21.645 10.6242C16.9308 10.4722 14.779 10.3581 13.053 8.68531Z" fill="white"/>
<path d="M21.645 10.8523V10.6242C16.9308 10.4722 14.779 10.3581 13.053 8.68531C11.3802 6.9593 11.2585 4.80748 11.1141 0.0932617H10.8859C10.7339 4.80748 10.6198 6.9593 8.94703 8.68531C7.22102 10.3581 5.0692 10.4798 0.35498 10.6242V10.8523C5.0692 11.0044 7.22102 11.1185 8.94703 12.7912C10.6198 14.5173 10.7415 16.6691 10.8859 21.3833H11.1141C11.2661 16.6691 11.3802 14.5173 13.053 12.7912C14.779 11.1185 16.9308 10.9968 21.645 10.8523Z" fill="#333333"/>
</svg>
