<svg width="30" height="22" viewBox="0 0 30 22" fill="none" xmlns="http://www.w3.org/2000/svg">
<path d="M29.0073 4.79426C29.0073 2.29933 27.1722 0.292301 24.9046 0.292301C21.833 0.148704 18.7005 0.0932617 15.4992 0.0932617H14.5013C11.3077 0.0932617 8.16967 0.148705 5.09814 0.292856C2.83607 0.292856 1.00091 2.31098 1.00091 4.80591C0.862299 6.77912 0.803529 8.75289 0.806856 10.7267C0.801311 12.7004 0.864147 14.676 0.995362 16.6535C0.995362 19.1484 2.83052 21.1721 5.09259 21.1721C8.31937 21.3218 11.6293 21.3883 14.9947 21.3828C18.3656 21.3939 21.6663 21.3236 24.8968 21.1721C27.1644 21.1721 28.9996 19.1484 28.9996 16.6535C29.1326 14.6742 29.1936 12.7004 29.1881 10.7211C29.2006 8.74734 29.1404 6.77173 29.0073 4.79426ZM12.2835 16.1656V5.27107L20.3228 10.7156L12.2835 16.1656Z" fill="white"/>
</svg>
