<svg width="30" height="30" viewBox="0 0 30 30" fill="none" xmlns="http://www.w3.org/2000/svg">
<path d="M29.0073 9.05598C29.0073 6.56105 27.1722 4.55402 24.9046 4.55402C21.833 4.41042 18.7005 4.35498 15.4992 4.35498H14.5013C11.3077 4.35498 8.16967 4.41042 5.09814 4.55457C2.83607 4.55457 1.00091 6.5727 1.00091 9.06763C0.862299 11.0408 0.803529 13.0146 0.806856 14.9884C0.801311 16.9621 0.864147 18.9378 0.995362 20.9152C0.995362 23.4101 2.83052 25.4338 5.09259 25.4338C8.31937 25.5835 11.6293 25.65 14.9947 25.6445C18.3656 25.6556 21.6663 25.5854 24.8968 25.4338C27.1644 25.4338 28.9996 23.4101 28.9996 20.9152C29.1326 18.9359 29.1936 16.9621 29.1881 14.9828C29.2006 13.0091 29.1404 11.0334 29.0073 9.05598ZM12.2835 20.4273V9.53279L20.3228 14.9773L12.2835 20.4273Z" fill="#E60029"/>
</svg>
