<svg width="60" height="60" viewBox="0 0 60 60" fill="none" xmlns="http://www.w3.org/2000/svg">
<path d="M10.2188 2.10938C9.44531 2.57812 9.375 2.84766 9.375 5.29688V7.5H6.24609C3.31641 7.5 3.08203 7.51172 2.71875 7.73438C2.50781 7.86328 2.23828 8.13281 2.10938 8.34375C1.875 8.73047 1.875 8.97656 1.875 24.5625C1.875 38.6602 1.89844 40.4531 2.0625 41.0273C2.56641 42.7617 4.03125 44.2383 5.75391 44.7773C6.39844 44.9766 6.87891 45 10.875 45C15.082 45 15.3164 44.9883 15.6797 44.7656C16.793 44.0859 16.8398 42.2344 15.7383 41.5195C15.457 41.332 15.0117 41.3086 11.25 41.25C7.35938 41.1914 7.06641 41.1797 6.69141 40.957C6.17578 40.6523 5.87109 40.2305 5.74219 39.6562C5.67188 39.3984 5.625 33.1875 5.625 25.2188V11.25H7.5H9.375V23.7539C9.375 36.0352 9.375 36.2812 9.60938 36.6562C10.0781 37.418 10.3828 37.5117 12.3984 37.4766L14.1914 37.4414L14.6484 36.9609C15.4219 36.1289 15.4219 35.1211 14.6602 34.3125C14.3086 33.9258 14.1328 33.832 13.6758 33.7852L13.125 33.7148V19.6641V5.61328L19.0781 5.66016C23.3203 5.68359 25.1367 5.74219 25.4531 5.83594C26.5195 6.19922 27.5508 7.23047 27.9141 8.29688C28.0078 8.60156 28.0664 10.582 28.1133 15.0586C28.1836 20.9062 28.1953 21.4219 28.3945 21.7148C29.0859 22.7812 30.9141 22.7812 31.6055 21.7148C31.8047 21.4219 31.8164 20.9062 31.8867 15.0586C31.9336 10.582 31.9922 8.60156 32.0859 8.29688C32.4492 7.23047 33.4805 6.19922 34.5469 5.83594C34.8633 5.74219 36.6797 5.68359 40.9336 5.66016L46.875 5.61328V19.6641V33.7148L46.3242 33.7852C45.8672 33.832 45.6914 33.9258 45.3398 34.3125C44.6484 35.0508 44.5898 36.0703 45.1992 36.7969C45.7266 37.4297 45.9961 37.5 47.7773 37.5C49.5938 37.5 49.9453 37.3828 50.3906 36.6562C50.625 36.2812 50.625 36.0352 50.625 23.7539V11.25H52.5H54.375V25.2188C54.375 33.1875 54.3281 39.3984 54.2578 39.6562C54.1289 40.2305 53.8242 40.6523 53.3086 40.957C52.9336 41.1797 52.6406 41.1914 48.75 41.25C44.9883 41.3086 44.543 41.332 44.2617 41.5195C43.7344 41.8594 43.4766 42.3984 43.4766 43.125C43.4766 43.8867 43.7578 44.4141 44.3203 44.7656C44.6836 44.9883 44.918 45 49.125 45C53.1211 45 53.6016 44.9766 54.2461 44.7773C55.9688 44.2383 57.4336 42.7617 57.9375 41.0273C58.1016 40.4531 58.125 38.6602 58.125 24.5625C58.125 8.97656 58.125 8.73047 57.8906 8.34375C57.7617 8.13281 57.4922 7.86328 57.2812 7.73438C56.918 7.51172 56.6836 7.5 53.7656 7.5H50.625V5.29688C50.625 2.84766 50.5547 2.57812 49.7812 2.10938C49.4062 1.88672 49.1719 1.875 41.9531 1.875C33.6211 1.875 33.7031 1.875 32.1211 2.69531C31.6289 2.95312 30.9492 3.39844 30.6094 3.70312L30 4.24219L29.3789 3.70312C29.0508 3.39844 28.3711 2.95312 27.8789 2.69531C26.2969 1.875 26.3789 1.875 18.0469 1.875C10.8281 1.875 10.5938 1.88672 10.2188 2.10938Z" fill="#555555"/>
<path d="M16.7812 11.4844C16.2187 11.8359 15.9375 12.3633 15.9375 13.125C15.9375 13.8867 16.2187 14.4141 16.7812 14.7656C17.1445 14.9883 17.3789 15 20.625 15C23.8711 15 24.1055 14.9883 24.4688 14.7656C25.0312 14.4141 25.3125 13.8867 25.3125 13.125C25.3125 12.3633 25.0312 11.8359 24.4688 11.4844C24.1055 11.2617 23.8711 11.25 20.625 11.25C17.3789 11.25 17.1445 11.2617 16.7812 11.4844Z" fill="#555555"/>
<path d="M35.5313 11.4844C34.9688 11.8359 34.6875 12.3633 34.6875 13.125C34.6875 13.8867 34.9688 14.4141 35.5313 14.7656C35.8945 14.9883 36.1289 15 39.375 15C42.6211 15 42.8555 14.9883 43.2187 14.7656C43.7812 14.4141 44.0625 13.8867 44.0625 13.125C44.0625 12.3633 43.7812 11.8359 43.2187 11.4844C42.8555 11.2617 42.6211 11.25 39.375 11.25C36.1289 11.25 35.8945 11.2617 35.5313 11.4844Z" fill="#555555"/>
<path d="M16.7812 18.9844C16.2187 19.3359 15.9375 19.8633 15.9375 20.625C15.9375 21.3867 16.2187 21.9141 16.7812 22.2656C17.1328 22.4766 17.3789 22.5 19.6875 22.5C21.9961 22.5 22.2422 22.4766 22.5938 22.2656C23.1563 21.9141 23.4375 21.3867 23.4375 20.625C23.4375 19.8633 23.1563 19.3359 22.5938 18.9844C22.2422 18.7734 21.9961 18.75 19.6875 18.75C17.3789 18.75 17.1328 18.7734 16.7812 18.9844Z" fill="#555555"/>
<path d="M37.4063 18.9844C36.8438 19.3359 36.5625 19.8633 36.5625 20.625C36.5625 21.3867 36.8438 21.9141 37.4063 22.2656C37.7578 22.4766 38.0039 22.5 40.3125 22.5C42.6211 22.5 42.8672 22.4766 43.2187 22.2656C43.7812 21.9141 44.0625 21.3867 44.0625 20.625C44.0625 19.8633 43.7812 19.3359 43.2187 18.9844C42.8672 18.7734 42.6211 18.75 40.3125 18.75C38.0039 18.75 37.7578 18.7734 37.4063 18.9844Z" fill="#555555"/>
<path d="M29.0037 24.3282C27.4334 24.5391 26.7654 24.6797 25.8748 24.9727C21.2576 26.4727 17.8006 30.4922 16.992 35.2735C16.7928 36.4102 16.7928 38.4961 16.9803 39.6094C17.3084 41.543 18.1756 43.6407 19.3006 45.2227C19.8982 46.0664 21.3865 47.5899 22.0662 48.0469L22.4998 48.3399V49.8047C22.4998 51.4453 22.6287 51.8321 23.3435 52.2657C23.7185 52.4883 23.9529 52.5 29.9998 52.5C36.0467 52.5 36.281 52.4883 36.656 52.2657C37.3709 51.8321 37.4998 51.4453 37.5115 49.8047V48.3399L38.3435 47.6953C39.2928 46.9571 40.3474 45.7852 41.1092 44.6133C43.324 41.1797 43.8045 36.6914 42.3631 32.8594C40.7576 28.5938 36.9959 25.3946 32.6131 24.5625C31.6404 24.375 29.6014 24.2461 29.0037 24.3282ZM34.5232 33.2344C35.3201 33.6094 35.7185 34.5 35.4959 35.3321C35.3904 35.7188 34.8748 36.293 32.7654 38.4258C30.0349 41.1914 29.3904 41.7188 28.7459 41.7188C28.0428 41.7188 27.6209 41.4258 26.0506 39.8321C24.7732 38.5313 24.5037 38.1797 24.4334 37.8164C24.3045 37.1602 24.5389 36.5274 25.0428 36.1055C25.9685 35.3438 26.7771 35.4961 27.8904 36.6211L28.6521 37.3828L30.6443 35.4024C31.7342 34.3008 32.8006 33.3282 32.9881 33.2344C33.4451 33 34.0193 33 34.5232 33.2344Z" fill="#E60029"/>
<path d="M25.2187 54.6094C24.6562 54.9609 24.375 55.4883 24.375 56.25C24.375 57.0117 24.6562 57.5391 25.2187 57.8906C25.582 58.1133 25.8164 58.125 30 58.125C34.1836 58.125 34.418 58.1133 34.7812 57.8906C35.3437 57.5391 35.625 57.0117 35.625 56.25C35.625 55.4883 35.3437 54.9609 34.7812 54.6094C34.418 54.3867 34.1836 54.375 30 54.375C25.8164 54.375 25.582 54.3867 25.2187 54.6094Z" fill="#E60029"/>
</svg>
