<svg width="60" height="60" viewBox="0 0 60 60" fill="none" xmlns="http://www.w3.org/2000/svg">
<path d="M0 4.76177C0 5.83832 0.872718 6.71104 1.94927 6.71104H3.15126V13.3762V18.0878C3.15126 19.1668 4.026 20.0415 5.10504 20.0415C6.18409 20.0415 7.05882 19.1668 7.05882 18.0878V13.3762V6.71104H30H52.9412L52.916 26.9206C52.8782 46.8911 52.8782 47.1427 52.6261 47.5703C52.4874 47.8092 52.2101 48.111 52.021 48.2619C51.6681 48.526 51.5421 48.526 45.3025 48.5637L40.8877 48.59C39.8154 48.5963 38.9496 49.4673 38.9496 50.5396C38.9496 51.6205 39.829 52.4951 40.91 52.4892L45.7942 52.4623L52.6387 52.4245L53.584 51.9592C55.3866 51.0664 56.5588 49.4692 56.8488 47.5199C56.9243 46.9666 56.9748 39.3079 56.9748 26.6691V6.71104H58.0508C59.1273 6.71104 60 5.83832 60 4.76177C60 3.68522 59.1273 2.8125 58.0508 2.8125H30H1.94927C0.872717 2.8125 0 3.68522 0 4.76177Z" fill="#555555"/>
<path d="M26.25 17.8125C26.25 18.8481 27.0894 19.6875 28.125 19.6875H33.75H39.375C40.4106 19.6875 41.25 18.8481 41.25 17.8125C41.25 16.7769 40.4106 15.9375 39.375 15.9375H33.75H28.125C27.0894 15.9375 26.25 16.7769 26.25 17.8125Z" fill="#555555"/>
<path d="M10.9215 22.7616C9.64997 23.0944 8.37852 23.809 7.4033 24.7332C5.50224 26.5199 4.6875 28.3929 4.6875 30.956C4.6875 33.4327 5.41583 35.1825 7.1811 36.9322C8.83527 38.5588 10.3537 39.2488 12.6374 39.3597C15.2298 39.4953 17.2419 38.7313 19.0566 36.9322C20.8218 35.1825 21.5625 33.4204 21.5625 30.956C21.5625 28.2943 20.5749 26.1626 18.5628 24.4498C16.5753 22.7494 13.5385 22.0839 10.9215 22.7616ZM14.3656 26.5323C15.7853 26.9512 16.9209 27.9986 17.4394 29.3787C17.8344 30.4261 17.7604 31.9171 17.2666 32.9151C16.7852 33.8886 16.0074 34.6403 14.9952 35.1209C14.2669 35.4659 14.0447 35.5152 13.1188 35.5152C12.193 35.5152 11.9707 35.4659 11.2425 35.1209C9.2056 34.1598 8.14398 31.9787 8.67479 29.7977C9.25498 27.3948 11.9585 25.8299 14.3656 26.5323Z" fill="#E60029"/>
<path d="M26.25 27.1875C26.25 28.2231 27.0894 29.0625 28.125 29.0625H37.5H46.875C47.9106 29.0625 48.75 28.2231 48.75 27.1875C48.75 26.1519 47.9106 25.3125 46.875 25.3125H37.5H28.125C27.0894 25.3125 26.25 26.1519 26.25 27.1875Z" fill="#555555"/>
<path d="M24.1716 38.2965L16.8288 40.0969L12.1038 40.1955C6.98291 40.2941 6.72751 40.3312 5.20786 41.0464C3.39449 41.9219 2.09193 43.3894 1.26186 45.498C1.01923 46.1393 0.993684 46.4475 0.955378 51.8857C0.917067 57.5457 0.917067 57.5951 1.19801 58.0637C1.35126 58.3226 1.68328 58.6556 1.95145 58.8036C2.43672 59.0625 2.4878 59.0625 12.5635 59.0625C22.5243 59.0625 22.6902 59.0625 23.2267 58.8036C23.6225 58.6186 23.8396 58.409 24.0311 58.0267C24.2865 57.5457 24.2993 57.2868 24.2993 54.3889C24.2993 51.0718 24.3248 50.8991 24.9634 50.3566C25.1166 50.2086 26.9045 49.0371 28.9093 47.73C32.5616 45.3747 33.2895 44.7951 33.9153 43.7593C34.6815 42.4768 34.9114 40.4668 34.4516 39.0364C34.1707 38.1609 33.545 37.1497 33.0852 36.8291C32.3828 36.3235 31.9742 36.3974 24.1716 38.2965ZM30.7482 41.145C30.71 41.404 30.5823 41.737 30.4801 41.8849C30.3779 42.0452 28.4879 43.3277 26.2914 44.7581C22.1922 47.397 21.6304 47.8533 21.0301 48.9755C20.4683 50.036 20.3406 50.8128 20.3406 53.1065V55.2398H12.6018H4.87583L4.91414 51.0718C4.95245 47.0395 4.96522 46.9038 5.24617 46.3612C5.68035 45.5103 6.19116 44.9801 6.94461 44.5732L7.63419 44.2032L12.2315 44.1293C17.5439 44.0552 16.203 44.2649 25.2571 42.0576C28.2836 41.3177 30.7738 40.7011 30.7993 40.7011C30.8249 40.6887 30.7993 40.8985 30.7482 41.145Z" fill="#E60029"/>
</svg>
