<svg width="30" height="30" viewBox="0 0 30 30" fill="none" xmlns="http://www.w3.org/2000/svg">
<g clip-path="url(#clip0_1309_159)">
<path fill-rule="evenodd" clip-rule="evenodd" d="M9.0861 4.35498C7.83133 4.35498 6.62795 4.85344 5.74069 5.74069C4.85344 6.62795 4.35498 7.83133 4.35498 9.0861V20.9139C4.35498 22.1687 4.85344 23.372 5.74069 24.2593C6.62795 25.1466 7.83133 25.645 9.0861 25.645H20.9139C22.1687 25.645 23.372 25.1466 24.2593 24.2593C25.1466 23.372 25.645 22.1687 25.645 20.9139V9.0861C25.645 7.83133 25.1466 6.62795 24.2593 5.74069C23.372 4.85344 22.1687 4.35498 20.9139 4.35498H9.0861ZM21.3066 12.6995C21.4807 12.4385 21.544 12.119 21.4825 11.8114C21.4211 11.5037 21.2399 11.2331 20.979 11.059C20.718 10.8849 20.3985 10.8216 20.0908 10.883C19.7832 10.9445 19.5125 11.1256 19.3384 11.3866C18.9197 11.9425 18.4809 12.4748 17.9676 12.9479C17.3727 13.4967 16.7706 13.9083 16.184 14.1519L16.1745 11.9047C16.1406 11.617 16.0023 11.3517 15.7858 11.1592C15.5693 10.9667 15.2897 10.8603 15 10.8603C14.3589 10.8969 13.8172 11.37 13.8172 12.043V17.2153C11.5132 16.5766 10.2689 14.3412 10.2689 12.043C10.2689 11.7294 10.1443 11.4285 9.92245 11.2067C9.70064 10.9849 9.39979 10.8603 9.0861 10.8603C8.77241 10.8603 8.47156 10.9849 8.24975 11.2067C8.02793 11.4285 7.90332 11.7294 7.90332 12.043C7.90332 16.3389 10.8721 19.7311 15 19.7311C15.3137 19.7311 15.6145 19.6065 15.8364 19.3847C16.0582 19.1629 16.1828 18.862 16.1828 18.5483V16.6997C17.7582 16.825 19.2864 17.938 19.8565 19.077C19.9229 19.2208 20.0176 19.3498 20.1348 19.4564C20.252 19.5629 20.3894 19.6448 20.5389 19.6972C20.6884 19.7496 20.8469 19.7715 21.005 19.7614C21.1631 19.7514 21.3175 19.7098 21.4592 19.6389C21.6009 19.5681 21.7269 19.4695 21.8297 19.3491C21.9326 19.2286 22.0102 19.0887 22.058 18.9377C22.1057 18.7866 22.1227 18.6276 22.1078 18.4699C22.0929 18.3122 22.0465 18.1591 21.9713 18.0196C21.4059 16.8877 20.3509 15.8291 19.0522 15.1384C19.2273 14.9953 19.4011 14.8439 19.5726 14.6866C20.2243 14.0923 20.806 13.4256 21.3066 12.6995Z" fill="#E60029"/>
</g>
<defs>
<clipPath id="clip0_1309_159">
<rect width="30" height="30" fill="white"/>
</clipPath>
</defs>
</svg>
