<svg width="166" height="60" viewBox="0 0 166 60" fill="none" xmlns="http://www.w3.org/2000/svg">
<g clip-path="url(#clip0_1309_723)">
<path d="M68 5V17H66.3611L59.9233 8.68573V17H58V5H59.6389L66.0771 13.3486V5H68Z" fill="white"/>
<path d="M79 17H72V5H78.8312V6.97145H74.0747V9.95428H78.3252V11.9257H74.0747V15.0286H79V17Z" fill="white"/>
<path d="M88.4068 5H90.8475L86.8472 10.88L91 17H88.5593L85.4914 12.4914L82.4407 17H80L84.1524 10.88L80.1863 5H82.6271L85.5424 9.33714L88.4068 5Z" fill="white"/>
<path d="M94.9341 6.97145H91V5H101V6.97145H97.0659V17H94.9341V6.97145Z" fill="white"/>
<path d="M65.9826 30.4626H63.0176V28.5512H68V33.3712C67.4737 33.8698 66.7718 34.2687 65.8948 34.5679C65.0173 34.856 64.187 35 63.4034 35C61.415 35 59.8477 34.4571 58.7017 33.3712C57.567 32.2964 57 30.8394 57 29C57 27.2936 57.5613 25.8698 58.684 24.7286C59.8071 23.5762 61.2865 23 63.1227 23C64.69 23 66.0059 23.3933 67.0702 24.1801L66.1577 25.8089C65.8537 25.5319 65.4502 25.3158 64.9473 25.1607C64.4443 24.9944 63.9241 24.9114 63.3857 24.9114C62.1579 24.9114 61.1693 25.277 60.4208 26.0083C59.6605 26.7285 59.2804 27.7258 59.2804 29C59.2804 30.2299 59.6605 31.2216 60.4208 31.9751C61.1693 32.7175 62.1752 33.0886 63.4384 33.0886C63.883 33.0886 64.3626 33.0111 64.8772 32.856C65.3918 32.6897 65.7603 32.5014 65.9826 32.2908V30.4626Z" fill="white"/>
<path d="M78 35H71V23H77.8312V24.9714H73.0747V27.9543H77.3252V29.9257H73.0747V33.0286H78V35Z" fill="white"/>
<path d="M90 23V35H88.3614L81.923 26.6857V35H80V23H81.6386L88.077 31.3486V23H90Z" fill="white"/>
<path d="M101 35H94V23H100.832V24.9714H96.0747V27.9543H100.326V29.9257H96.0747V33.0286H101V35Z" fill="white"/>
<path d="M106.009 30.5214V35H104V23.0342C104.566 23.0342 105.181 23.0285 105.846 23.0171C106.51 23.0057 107.054 23 107.479 23C110.245 23 111.628 24.2308 111.628 26.6923C111.628 27.604 111.405 28.3561 110.958 28.9487C110.512 29.5185 110 29.906 109.423 30.1111L113 35H110.566L107.414 30.5214H106.009ZM107.381 24.9658C107.327 24.9658 107.24 24.9715 107.12 24.9829C107 24.9829 106.831 24.9886 106.613 25C106.396 25 106.194 25 106.009 25V28.5555H107.316C107.958 28.5555 108.481 28.3903 108.884 28.0598C109.297 27.7293 109.504 27.2792 109.504 26.7094C109.504 25.547 108.797 24.9658 107.381 24.9658Z" fill="white"/>
<path d="M115.126 35H113L118.074 23H119.926L125 35H122.754L121.503 31.9402H116.377L115.126 35ZM120.697 29.9744L118.948 25.7179L117.183 29.9744H120.697Z" fill="white"/>
<path d="M127.934 24.9714H124V23H134V24.9714H130.066V35H127.934V24.9714Z" fill="white"/>
<path d="M138 35H136V23H138V35Z" fill="white"/>
<path d="M141 29C141 27.3047 141.56 25.8809 142.679 24.7286C143.82 23.5762 145.258 23 146.992 23C148.726 23 150.158 23.554 151.288 24.662C152.429 25.7812 153 27.2272 153 29C153 30.7396 152.429 32.1745 151.288 33.3047C150.147 34.4349 148.715 35 146.992 35C145.258 35 143.826 34.446 142.696 33.338C141.565 32.2299 141 30.7839 141 29ZM143.14 29C143.14 30.1745 143.508 31.1496 144.243 31.9252C144.978 32.7008 145.895 33.0886 146.992 33.0886C148.177 33.0886 149.115 32.7008 149.807 31.9252C150.509 31.1496 150.86 30.1745 150.86 29C150.86 27.8144 150.487 26.8338 149.741 26.0582C148.994 25.2937 148.078 24.9114 146.992 24.9114C145.884 24.9114 144.962 25.2937 144.227 26.0582C143.502 26.8227 143.14 27.8033 143.14 29Z" fill="white"/>
<path d="M166 23V35H164.361L157.923 26.6857V35H156V23H157.639L164.077 31.3486V23H166Z" fill="white"/>
<path d="M63.3966 49.8501C63.3966 49.461 63.2837 49.1223 63.058 48.8334C62.8322 48.5445 62.5411 48.3111 62.1849 48.1332C61.8283 47.9445 61.4304 47.7666 60.9912 47.6002C60.5635 47.4333 60.13 47.2554 59.6904 47.0668C59.263 46.8666 58.8709 46.6443 58.5147 46.3998C58.1581 46.1557 57.8674 45.8335 57.6416 45.4333C57.4159 45.0334 57.303 44.5723 57.303 44.05C57.303 43.1944 57.6416 42.4724 58.3188 41.8835C59.0075 41.2946 59.9223 41 61.0624 41C61.7633 41 62.4225 41.1113 63.04 41.3333C63.6579 41.5556 64.1445 41.8502 64.5011 42.2168L63.6816 43.2836C63.0044 42.6499 62.1612 42.3335 61.1515 42.3335C60.4625 42.3335 59.9161 42.4889 59.5125 42.7999C59.1085 43.111 58.9065 43.5277 58.9065 44.05C58.9065 44.4388 59.0193 44.7778 59.2451 45.0667C59.4708 45.3556 59.7619 45.589 60.1181 45.7666C60.4743 45.9445 60.8665 46.1167 61.2938 46.2835C61.7334 46.4389 62.1669 46.611 62.5946 46.8001C63.0342 46.9887 63.4321 47.2057 63.7883 47.4502C64.1445 47.6832 64.4357 48.0054 64.6614 48.4167C64.8871 48.8277 65 49.2999 65 49.8333C65 50.7887 64.6078 51.5555 63.8239 52.1333C63.0637 52.7111 62.1019 53 60.9376 53C60.1181 53 59.3342 52.8443 58.5859 52.5332C57.8375 52.2221 57.3092 51.7943 57 51.2498L57.8731 50.2832C58.2178 50.7053 58.675 51.0443 59.2451 51.2999C59.8151 51.5444 60.3852 51.6665 60.9556 51.6665C61.6561 51.6665 62.2385 51.5054 62.7014 51.1832C63.1647 50.8499 63.3966 50.4053 63.3966 49.8501Z" fill="white"/>
<path d="M76.4098 50.6334L77 51.6998C76.5951 52.1 76.0452 52.4165 75.3507 52.6499C74.6565 52.8833 73.9273 53 73.1634 53C71.3463 53 69.8587 52.4555 68.7015 51.3665C67.567 50.2553 67 48.8001 67 47.0002C67 45.2668 67.5439 43.8388 68.6318 42.7169C69.7201 41.5724 71.1957 41 73.059 41C74.5983 41 75.8312 41.378 76.7569 42.1334L76.0799 43.2002C75.2698 42.6224 74.2688 42.3335 73.0765 42.3335C71.7571 42.3335 70.6748 42.7667 69.83 43.6333C68.9849 44.4889 68.5625 45.6112 68.5625 47.0002C68.5625 48.3888 68.9964 49.5164 69.8647 50.3831C70.7557 51.2387 71.9018 51.6665 73.3021 51.6665C74.4828 51.6665 75.5188 51.3221 76.4098 50.6334Z" fill="white"/>
<path d="M88 53H86.6217V47.5658H80.3783V53H79V41H80.3783V46.1941H86.6217V41H88V53Z" fill="white"/>
<path d="M91 47.0002C91 45.3112 91.5659 43.8889 92.6977 42.7334C93.8291 41.5778 95.2633 41 97 41C98.7255 41 100.154 41.5613 101.286 42.6832C102.429 43.8055 103 45.2446 103 47.0002C103 48.711 102.429 50.1443 101.286 51.2999C100.143 52.4333 98.7143 53 97 53C95.2857 53 93.8515 52.4387 92.6977 51.3168C91.5659 50.1945 91 48.7554 91 47.0002ZM92.5125 47.0002C92.5125 48.3111 92.9442 49.4223 93.8067 50.3334C94.6697 51.2222 95.734 51.6665 97 51.6665C98.3224 51.6665 99.3978 51.2222 100.227 50.3334C101.067 49.4445 101.487 48.3333 101.487 47.0002C101.487 45.6667 101.056 44.5555 100.193 43.6666C99.3307 42.7777 98.266 42.3335 97 42.3335C95.7116 42.3335 94.6415 42.7724 93.7901 43.6502C92.9384 44.5279 92.5125 45.6445 92.5125 47.0002Z" fill="white"/>
<path d="M105 47.0002C105 45.3112 105.566 43.8889 106.697 42.7334C107.829 41.5778 109.263 41 111 41C112.726 41 114.154 41.5613 115.286 42.6832C116.429 43.8055 117 45.2446 117 47.0002C117 48.711 116.429 50.1443 115.286 51.2999C114.143 52.4333 112.715 53 111 53C109.286 53 107.852 52.4387 106.697 51.3168C105.566 50.1945 105 48.7554 105 47.0002ZM106.513 47.0002C106.513 48.3111 106.944 49.4223 107.807 50.3334C108.669 51.2222 109.734 51.6665 111 51.6665C112.322 51.6665 113.398 51.2222 114.227 50.3334C115.067 49.4445 115.487 48.3333 115.487 47.0002C115.487 45.6667 115.056 44.5555 114.194 43.6666C113.331 42.7777 112.266 42.3335 111 42.3335C109.711 42.3335 108.641 42.7724 107.79 43.6502C106.938 44.5279 106.513 45.6445 106.513 47.0002Z" fill="white"/>
<path d="M127 53H120V41H121.384V51.6287H127V53Z" fill="white"/>
<path fill-rule="evenodd" clip-rule="evenodd" d="M19.4059 3.94913C5.46531 3.94913 0.660063 1.31638 0 0V9.47794C0.660063 10.7943 5.46531 13.4271 19.4059 13.4271C33.3464 13.4271 38.9437 18.6926 40 21.3253V11.8474C38.9437 9.21463 33.3464 3.94913 19.4059 3.94913ZM19.4059 23.1727C5.46531 23.1727 0.660063 20.4953 0 19.1566V28.7952C0.660063 30.1339 5.46531 32.8113 19.4059 32.8113C33.3464 32.8113 38.9437 38.166 40 40.8435V31.2048C38.9437 28.5275 33.3464 23.1727 19.4059 23.1727ZM0 38.6747C0.660063 39.9913 5.46531 42.624 19.4059 42.624C33.3464 42.624 38.9437 47.8893 40 50.522V60C38.9437 57.3673 33.3464 52.102 19.4059 52.102C5.46531 52.102 0.660063 49.4689 0 48.1526V38.6747Z" fill="white"/>
<g opacity="0.7">
<path d="M52 5C44.248 6.61617 40.8066 10.2268 40 12.2786V22C40.8066 19.9482 44.248 16.3375 52 14.7213V5Z" fill="white"/>
<path d="M52 24C44.248 25.6162 40.8066 29.2268 40 31.2786V41C40.8066 38.9482 44.248 35.3375 52 33.7213V24Z" fill="white"/>
<path d="M52 43C44.248 44.6162 40.8066 48.2266 40 50.2785V60C40.8066 57.9482 44.248 54.3373 52 52.7211V43Z" fill="white"/>
</g>
</g>
<defs>
<clipPath id="clip0_1309_723">
<rect width="166" height="60" fill="white"/>
</clipPath>
</defs>
</svg>
