<svg width="60" height="60" viewBox="0 0 60 60" fill="none" xmlns="http://www.w3.org/2000/svg">
<path d="M28.2424 0.0819627C23.3791 0.57415 18.2932 2.3554 14.59 4.83977C11.6955 6.78509 8.48456 9.96085 6.42206 12.8905C3.99628 16.3476 2.34393 20.3788 1.55878 24.7265C1.27753 26.2851 1.24237 26.6952 1.24237 29.6483C1.24237 33.1874 1.37128 34.3241 2.10956 37.2538C3.39862 42.3749 6.05878 47.1913 9.69159 50.9765C14.4494 55.9452 20.508 58.9569 27.4807 59.8241C29.3205 60.0585 33.0471 60.0468 34.9221 59.8241C44.1682 58.6757 52.3361 53.3319 57.0822 45.328C58.6642 42.6796 59.0744 41.4843 58.6994 40.746C58.2658 39.9023 57.4338 39.5038 56.6017 39.7265C55.9103 39.914 55.6408 40.2304 54.8439 41.7655C52.0197 47.2499 48.0939 51.1874 42.9494 53.6835C41.1564 54.5507 39.8322 55.0429 38.0978 55.4882C31.1721 57.2577 23.6252 56.1444 17.4377 52.4413C11.4728 48.8671 7.35956 43.371 5.67206 36.7265C5.46112 35.8944 5.20331 34.6523 5.09784 33.9726C4.84003 32.2851 4.74628 28.8398 4.91034 27.246C5.75409 19.3358 9.86737 12.5624 16.5236 8.14446C24.0939 3.1054 33.3869 2.14446 41.4377 5.57805C42.8088 6.15227 45.0588 7.38274 46.0666 8.1093L46.6994 8.55462H45.9611C45.0822 8.55462 44.5666 8.75384 44.1564 9.2343C43.3244 10.2187 43.8986 11.9179 45.1408 12.1171C45.3517 12.1523 47.1916 12.2343 49.2189 12.2929C52.8986 12.4101 52.9103 12.4101 53.4377 12.1523C53.7424 11.9999 54.0471 11.7304 54.176 11.5194C54.5861 10.7929 54.4924 10.3593 53.1682 6.76165C52.4767 4.91009 51.8439 3.24602 51.7385 3.05852C51.3283 2.24993 50.3088 1.9218 49.4182 2.32024C48.4689 2.74212 48.1525 3.72649 48.5744 4.9218C48.6682 5.19134 48.7502 5.43743 48.7502 5.46087C48.7502 5.4843 48.2932 5.19134 47.7307 4.81634C43.9924 2.30852 39.7502 0.76165 35.0041 0.175713C33.715 0.0116503 29.4494 -0.0469435 28.2424 0.0819627Z" fill="#555555"/>
<path d="M28.8633 9.49224C26.3555 9.80865 24.3047 10.4415 21.9727 11.6016C16.2656 14.4376 12.3398 19.5821 10.9922 25.9805C10.7578 27.0938 10.7227 27.5743 10.7227 30.0001C10.7344 33.1172 10.875 34.0313 11.7188 36.5743C13.8281 42.9141 19.0195 47.9063 25.4297 49.7461C28.1953 50.543 31.0898 50.7422 33.9023 50.3438C40.9336 49.3477 46.3828 45.6094 49.3945 39.7149C50.5312 37.4883 51.2695 35.0743 51.5625 32.5547C51.7734 30.7735 51.6562 27.504 51.3281 25.8399C49.5938 17.1094 43.207 11.0626 34.2773 9.66803C32.8359 9.44537 29.9883 9.35162 28.8633 9.49224ZM29.4141 13.629C29.4141 14.3438 29.7422 14.8946 30.3516 15.1993C30.9961 15.5274 31.4297 15.5391 32.0625 15.2227C32.6367 14.9532 33.0469 14.2618 33.0469 13.5587C33.0469 13.043 33.0234 13.043 34.5703 13.3594C36.7969 13.8165 39.3398 14.918 41.0625 16.1837L41.8594 16.7813L41.4844 17.168C40.8867 17.7891 40.8047 18.7618 41.3086 19.5235C41.5195 19.8516 42.3281 20.2618 42.75 20.2735C43.1133 20.2735 43.8281 19.9688 44.1445 19.6641C44.2852 19.5352 44.4492 19.4532 44.5078 19.5001C44.5664 19.5352 44.8828 19.9454 45.2109 20.4258C46.418 22.1719 47.4727 24.6915 47.8711 26.754C48.1172 28.0547 48.1055 28.1251 47.707 28.1251C46.7812 28.1251 46.0195 28.6876 45.832 29.5196C45.5273 30.7618 46.3008 31.7579 47.5664 31.7579C48 31.7579 48.0469 31.7813 48.0469 32.0508C48.0469 33.0821 47.1797 35.9649 46.4062 37.5118C45.9609 38.3907 44.5781 40.5469 44.4492 40.5469C44.4141 40.5469 44.2148 40.3946 43.9922 40.1954C42.7969 39.1524 40.9922 39.961 40.9922 41.543C40.9922 42.1055 41.1445 42.4454 41.5547 42.9024L41.8359 43.1954L41.1094 43.7344C40.125 44.4376 39.1172 45.0118 37.9805 45.5157C36.5977 46.1251 35.332 46.4766 33.4453 46.8047L33.082 46.8633L33.0117 46.2305C32.8945 45.1172 32.25 44.5313 31.1367 44.5313C30.1641 44.5313 29.4141 45.3399 29.4141 46.3712C29.4141 46.6524 29.3906 46.8751 29.3672 46.8751C29.332 46.8751 28.7578 46.7696 28.0898 46.6407C25.7578 46.1836 23.3906 45.1876 21.5273 43.8751L20.6016 43.2188L20.8945 42.9141C21.3281 42.4454 21.4453 42.1407 21.4453 41.5079C21.4453 40.5001 20.6719 39.7266 19.6523 39.7266C19.1367 39.7266 18.832 39.8672 18.375 40.2774C18.2109 40.4415 18.0117 40.5352 17.9414 40.5001C17.6719 40.336 16.4883 38.4024 15.8906 37.1368C15.1992 35.7188 14.7422 34.2774 14.4961 32.754L14.3438 31.8165L15 31.7462C16.1016 31.629 16.6406 31.0547 16.6406 29.9766C16.6406 28.8985 16.0898 28.3243 14.9297 28.1602L14.3906 28.0899L14.4609 27.4219C14.7188 25.1719 15.9609 22.1602 17.5078 20.0391L17.9883 19.3712L18.4453 19.7579C19.6641 20.8126 21.4453 20.0157 21.4453 18.4219C21.4453 17.8712 21.2461 17.4024 20.8711 17.0626C20.5547 16.7813 20.6367 16.6758 21.7383 15.9376C23.4727 14.7657 25.7695 13.793 27.8086 13.3712C29.4141 13.0313 29.4141 13.0313 29.4141 13.629Z" fill="#E60029"/>
<path d="M30.6445 20.5196C30.1758 20.6602 29.9648 20.8477 29.6602 21.3282C29.4258 21.7266 29.4141 21.8673 29.4141 26.0509C29.4141 29.461 29.4492 30.4337 29.5781 30.7384C29.6602 30.9493 30.9492 32.3087 32.4141 33.7735C34.6758 36.0001 35.168 36.4337 35.5313 36.504C36.3633 36.6563 37.2188 36.293 37.5586 35.6251C37.7695 35.2266 37.793 34.3126 37.6055 33.9493C37.5352 33.8087 36.4805 32.6837 35.2617 31.4649L33.0586 29.2384L33.0234 25.4063C32.9883 21.7501 32.9766 21.5626 32.7422 21.2579C32.2383 20.5665 31.4063 20.2735 30.6445 20.5196Z" fill="#E60029"/>
</svg>
