<svg width="60" height="60" viewBox="0 0 60 60" fill="none" xmlns="http://www.w3.org/2000/svg">
<g clip-path="url(#clip0_148_4193)">
<mask id="mask0_148_4193" style="mask-type:luminance" maskUnits="userSpaceOnUse" x="0" y="0" width="60" height="60">
<path d="M60 0H0V60H60V0Z" fill="white"/>
</mask>
<g mask="url(#mask0_148_4193)">
<path d="M10.1953 34.5235C9.05859 34.711 8.49609 34.8868 7.62891 35.2969C6.30469 35.9297 5.05078 37.1602 4.42969 38.4375C3.21094 40.9102 3.38672 43.6407 4.88672 45.9141C5.17969 46.3477 5.27344 46.5821 5.17969 46.6172C5.09766 46.6407 4.71094 46.875 4.30078 47.1446C2.29688 48.4922 0.796875 50.6368 0.222656 53.0274C0.0351562 53.8243 0 54.4102 0 56.9766V57.5391C0 58.8983 1.1018 60 2.46094 60H57.5391C58.8982 60 60 58.8983 60 57.5391V57C60 54.6563 59.9531 53.8243 59.8125 53.168C59.1797 50.4141 57.375 48 54.9844 46.7227L54.2812 46.3477L54.7266 45.6094C55.4414 44.4375 55.6875 43.6055 55.7461 42.1289C55.8516 39.8672 55.2188 38.2149 53.6836 36.6797C52.207 35.2149 50.6016 34.5352 48.5742 34.5352C47.25 34.5235 46.4883 34.6993 45.2344 35.3086C43.5117 36.1407 42.2227 37.6758 41.5312 39.7266C41.3672 40.2188 41.3086 40.711 41.3086 41.7774C41.3203 43.0079 41.3555 43.3008 41.6367 44.1211C41.8242 44.6368 42.1758 45.3633 42.4336 45.7383C42.6797 46.125 42.8906 46.4649 42.8906 46.5118C42.8906 46.5586 42.7148 46.6758 42.5039 46.7813C41.8945 47.0743 40.3828 48.3399 39.9141 48.961L39.4805 49.5235L38.3438 48.3985C37.4062 47.4844 36.1641 46.5704 35.5898 46.3711C35.5312 46.3594 35.6836 46.0196 35.9414 45.6211C36.6914 44.461 36.9727 43.4414 36.9727 41.7774C36.9727 40.711 36.9141 40.2188 36.75 39.7266C36.0586 37.6758 34.7695 36.1407 33.0469 35.3086C31.7812 34.6993 31.0312 34.5235 29.707 34.5352C28.3711 34.5469 27.7266 34.6993 26.4961 35.2969C24.6445 36.1875 23.1797 38.0157 22.6641 40.0782C22.3828 41.1914 22.4883 43.1485 22.875 44.1914C23.1445 44.9063 23.5195 45.6211 23.9766 46.2539C24.1523 46.5 24.1289 46.5235 23.3555 47.0274C22.4062 47.6485 21.5156 48.4336 21.0352 49.0899C20.8477 49.3477 20.6602 49.5704 20.625 49.5704C20.5898 49.5704 20.3555 49.3008 20.1094 48.9844C19.5703 48.2813 18.1289 47.0977 17.2969 46.6758C16.9688 46.5118 16.6875 46.3594 16.6641 46.3477C16.6406 46.336 16.793 46.0782 16.9805 45.7969C18.0469 44.2266 18.4336 42 17.9766 40.0782C17.4961 38.0274 16.0312 36.1758 14.168 35.2969C13.6289 35.0391 12.9492 34.7813 12.6562 34.711C12.0234 34.5586 10.6055 34.4532 10.1953 34.5235ZM12.5039 38.5664C14.9883 39.7618 15.2344 43.1954 12.9492 44.7657C12.668 44.9649 12.082 45.211 11.6602 45.3164C10.9453 45.5157 10.8516 45.5157 10.1367 45.3164C6.35156 44.3321 6.30469 39.293 10.0664 38.2383C10.8047 38.0391 11.6367 38.1446 12.5039 38.5664ZM31.2422 38.4961C34.0312 39.7618 34.1016 43.6055 31.3594 45C30.6562 45.3633 30.4453 45.4102 29.7188 45.3985C28.3125 45.3868 27.1641 44.6602 26.4609 43.336C26.0742 42.6211 26.0742 40.9454 26.4492 40.2422C26.8359 39.5274 27.2578 39.0586 27.8672 38.7071C29.0039 38.0391 30.0938 37.9688 31.2422 38.4961ZM49.9805 38.4844C50.7773 38.8477 51.3281 39.3516 51.75 40.1016C52.0547 40.6641 52.0898 40.8282 52.0898 41.7774C52.0898 42.6446 52.043 42.9141 51.8203 43.336C51.1055 44.6719 49.9688 45.3985 48.5508 45.3985C47.8242 45.3985 47.6133 45.3516 46.9219 45C43.8516 43.4297 44.4141 39.0469 47.7773 38.2032C48.3984 38.0508 49.2891 38.168 49.9805 38.4844ZM13.9805 49.2774C16.8281 50.0157 18.75 52.4883 18.75 55.4297V56.4844H3.49219L3.57422 55.336C3.67969 53.9297 3.96094 52.9805 4.54688 52.0782C5.36719 50.8125 6.55078 49.8633 7.79297 49.4649C8.83594 49.125 8.78906 49.125 11.1328 49.1133C12.7266 49.1016 13.4883 49.1485 13.9805 49.2774ZM32.8594 49.2774C35.0742 49.8516 36.8672 51.6563 37.4414 53.8711C37.5352 54.2344 37.6172 54.9844 37.6172 55.5118V56.4844H22.3477L22.4297 55.3829C22.5117 54.2344 22.7227 53.3321 23.1094 52.5586C23.9062 50.9649 25.5117 49.6993 27.2461 49.2657C28.1367 49.043 32.0039 49.0547 32.8594 49.2774ZM51.6094 49.2774C53.3906 49.7461 54.7383 50.8008 55.6875 52.4649C56.0977 53.2032 56.3203 54.0704 56.4258 55.3946L56.5078 56.4844H41.25V55.418C41.25 52.5235 43.1602 50.0391 45.9609 49.2891C46.8516 49.043 50.6953 49.043 51.6094 49.2774Z" fill="#555555"/>
<path d="M0 22.8516C0 24.146 1.04933 25.1953 2.34375 25.1953H6.65625L8.74219 28.125C9.89062 29.7305 10.8633 31.0547 10.8984 31.0547C10.9336 31.0547 11.9062 29.7305 13.0547 28.125L15.1523 25.1953H25.7461L27.8438 28.125C28.9922 29.7305 29.9648 31.0547 30 31.0547C30.0352 31.0547 31.0078 29.7305 32.1562 28.125L34.2539 25.1953H44.2852L46.3711 28.125C47.5195 29.7305 48.4922 31.0547 48.5273 31.0547C48.5625 31.0547 49.5352 29.7305 50.6836 28.125L52.7695 25.1953H57.6562C58.9507 25.1953 60 24.146 60 22.8516V2.34375C60 1.04933 58.9507 0 57.6562 0H2.34375C1.04933 0 0 1.04933 0 2.34375V22.8516ZM17.3438 8.46094C17.3438 9.73687 18.3645 10.7784 19.6402 10.8042L19.6641 10.8047C22.1953 10.8398 22.4766 10.9102 23.0156 11.6367C23.3555 12.0938 23.3555 12.9844 23.0156 13.4297C22.4297 14.2148 22.3594 14.2383 19.7344 14.2734L19.653 14.2747C18.3722 14.2935 17.3438 15.3371 17.3438 16.6181V21.5625H14.2446C13.5432 21.5625 12.8787 21.8766 12.4335 22.4186L12.0586 22.875C11.4727 23.6016 10.957 24.2109 10.9102 24.2227C10.875 24.2461 10.3711 23.6484 9.78516 22.9102L9.43022 22.4605C8.98805 21.9005 8.31479 21.5723 7.6012 21.5692L6.12891 21.5625H3.51562V3.51562H17.3438V8.46094ZM39.0234 7.24219L37.9805 7.28906C37.0664 7.33594 36.8203 7.39453 36.0586 7.76953C33.9609 8.8125 32.7773 11.0625 33.1289 13.3594C33.5391 15.9961 35.8359 17.9297 38.5781 17.9297H39.0234V21.5625L35.6016 21.5859L33.2755 21.6098C32.581 21.617 31.9255 21.9318 31.4857 22.4693L31.125 22.9102C30.5508 23.6133 30.0469 24.1992 30 24.1992C29.9531 24.1992 29.4492 23.6133 28.875 22.9102L28.5143 22.4693C28.0745 21.9318 27.419 21.617 26.7245 21.6098L24.3984 21.5859L20.9766 21.5625V17.9297H21.4219C22.875 17.9297 24.3633 17.332 25.3594 16.3359C27.9492 13.7461 27.2344 9.39844 23.9414 7.76953C23.1797 7.39453 22.9336 7.33594 22.0195 7.28906L20.9766 7.24219V3.51562H39.0234V7.24219ZM56.4844 21.5625H51.8687C51.1567 21.5625 50.4832 21.8861 50.0385 22.4422L49.6641 22.9102C49.0781 23.6484 48.5625 24.2578 48.5273 24.2578C48.4922 24.2578 47.9883 23.6484 47.4023 22.9102L47.0457 22.4585C46.6045 21.8995 45.9332 21.5716 45.2211 21.567L44.5078 21.5625H42.6562V16.6181C42.6562 15.3371 41.6278 14.2935 40.347 14.2747L40.2656 14.2734C37.6406 14.2383 37.5703 14.2148 36.9844 13.4297C36.6445 12.9844 36.6445 12.0938 36.9844 11.6367C37.5234 10.9102 37.8047 10.8398 40.3477 10.8047C41.6233 10.7788 42.6562 9.73706 42.6562 8.46117V3.51562H56.4844V21.5625Z" fill="#E60029"/>
</g>
</g>
<defs>
<clipPath id="clip0_148_4193">
<rect width="60" height="60" fill="white"/>
</clipPath>
</defs>
</svg>
