<svg width="22" height="22" viewBox="0 0 22 22" fill="none" xmlns="http://www.w3.org/2000/svg">
<path d="M11.0005 0.35498C5.12444 0.35498 0.355469 5.12395 0.355469 11C0.355469 16.8761 5.12444 21.645 11.0005 21.645C16.8765 21.645 21.6455 16.8761 21.6455 11C21.6455 5.12395 16.8765 0.35498 11.0005 0.35498ZM15.9398 7.59359C15.7801 9.27551 15.0882 13.3632 14.7369 15.2474C14.5879 16.0457 14.2898 16.3119 14.013 16.3438C13.3956 16.397 12.9272 15.9393 12.3311 15.5454C11.3944 14.928 10.8621 14.5448 9.95728 13.9487C8.90342 13.2567 9.5847 12.8735 10.1915 12.2561C10.3511 12.0964 13.0763 9.61615 13.1295 9.3926C13.1369 9.35874 13.1359 9.32359 13.1266 9.2902C13.1174 9.25681 13.1001 9.22619 13.0763 9.20099C13.0124 9.14777 12.9272 9.16906 12.8527 9.1797C12.7569 9.20099 11.2666 10.191 8.36052 12.1497C7.93472 12.4371 7.5515 12.5861 7.21086 12.5755C6.82764 12.5648 6.10378 12.3626 5.56088 12.1816C4.89025 11.9687 4.36864 11.8516 4.41122 11.479C4.43251 11.2874 4.69864 11.0958 5.19895 10.8935C8.3073 9.54163 10.3724 8.64745 11.405 8.22165C14.3643 6.98683 14.9711 6.77393 15.3756 6.77393C15.4608 6.77393 15.663 6.79522 15.7907 6.90167C15.8972 6.98683 15.9291 7.10392 15.9398 7.18908C15.9291 7.25295 15.9504 7.44456 15.9398 7.59359Z" fill="#E60029"/>
</svg>
